<svg width="300" height="300" viewBox="0 0 300 300" fill="none" xmlns="http://www.w3.org/2000/svg">
<path d="M143.408 172.727L144.647 173.141C174.813 183.471 192.581 197.934 192.581 213.636C192.581 221.074 184.73 242.975 160.763 242.975C147.953 242.975 111.474 243.629 80.8955 210.984L40.9285 250C60.7632 271.074 83.9037 285.537 109.937 293.802C130.598 300 147.341 297.892 160.151 297.892C186.184 297.892 210.35 290.083 227.292 271.074C241.755 254.959 250.433 233.884 250.433 213.636C250.433 192.975 242.581 173.554 227.705 157.025C212.829 140.909 191.342 128.099 163.656 118.595C161.176 117.769 158.697 116.942 155.391 116.116C128.945 109.504 118.614 101.24 118.201 86.3637C117.788 76.8595 120.681 72.3141 123.16 69.8347C130.598 61.9835 145.061 59.0909 148.78 59.0909C173.986 59.0909 185.284 62.3529 203.879 74.3364L214.895 85.5372L245.061 36.3636L235.557 30.1653C214.482 16.5289 190.928 1.23968 148.78 1.23968C133.904 1.23968 102.912 7.43802 81.4243 29.7521C66.5483 45.4546 59.1103 65.7025 60.35 88.843C61.5896 116.529 74.3995 138.843 97.54 154.132C114.069 165.289 131.838 169.835 141.342 172.314L143.408 172.727Z" fill="#7240A8"/>
<path d="M150 0C67.3554 0 0 67.3554 0 150C0 232.645 67.3554 300 150 300C232.645 300 300 232.645 300 150C300 67.3554 232.645 0 150 0ZM150 59.5041C200 59.5041 240.496 100 240.496 150C240.496 200 200 240.496 150 240.496C100 240.496 59.5041 200 59.5041 150C59.5041 100 100 59.5041 150 59.5041Z" fill="white"/>
</svg>
