<svg width="1099" height="287" viewBox="0 0 1099 287" fill="none" xmlns="http://www.w3.org/2000/svg">
<path d="M955.418 169.517L956.555 169.896C984.214 179.361 1000.51 192.613 1000.51 207.001C1000.51 213.817 993.307 233.884 971.332 233.884C959.586 233.884 926.138 234.483 898.1 204.571L861.454 240.321C879.64 259.631 900.858 272.883 924.728 280.455C943.673 286.135 959.025 284.203 970.771 284.203C994.641 284.203 1016.8 277.047 1032.33 259.631C1045.59 244.864 1053.55 225.554 1053.55 207.001C1053.55 188.07 1046.35 170.274 1032.71 155.129C1019.07 140.363 999.37 128.625 973.984 119.917C971.711 119.16 969.437 118.402 966.406 117.645C942.157 111.587 932.685 104.015 932.306 90.3839C931.927 81.6755 934.579 77.5106 936.853 75.2388C943.673 68.0449 956.934 65.3945 960.344 65.3945C983.456 65.3945 993.815 68.3834 1010.86 79.3636L1020.97 89.6267L1048.63 44.5699L1039.91 38.8905C1020.59 26.3958 998.991 12.3866 960.344 12.3866C946.704 12.3866 918.287 18.066 898.585 38.5119C884.945 52.8997 878.125 71.4525 879.262 92.6557C880.398 118.024 892.144 138.47 913.362 152.479C928.517 162.702 944.81 166.867 953.524 169.139L955.418 169.517Z" fill="#7240A8"/>
<path d="M961.463 11.2507C885.685 11.2507 823.926 72.967 823.926 148.693C823.926 224.418 885.685 286.135 961.463 286.135C1037.24 286.135 1099 224.418 1099 148.693C1099 72.967 1037.24 11.2507 961.463 11.2507ZM961.463 65.7731C1007.31 65.7731 1044.44 102.879 1044.44 148.693C1044.44 194.507 1007.31 231.612 961.463 231.612C915.617 231.612 878.486 194.507 878.486 148.693C878.486 102.879 915.617 65.7731 961.463 65.7731Z" fill="white"/>
<path d="M93.9648 169.625L95.1014 170.004C122.76 179.47 139.053 192.722 139.053 207.109C139.053 213.925 131.854 233.992 109.878 233.992C98.1326 233.992 66.6847 233.992 38.6468 204.08L0 240.429C18.1867 259.739 39.4046 272.991 63.2747 280.563C82.2192 286.243 98.1326 287 109.878 287C133.748 287 155.345 277.156 170.879 259.739C184.141 244.972 192.097 225.662 192.097 207.109C192.097 188.178 184.898 170.383 171.258 155.237C157.618 140.471 137.916 128.733 112.53 120.025C110.257 119.268 107.984 118.511 104.953 117.753C80.7036 111.695 71.2314 104.123 70.8525 90.4921C70.4736 81.7836 73.1258 77.6187 75.3992 75.347C82.2192 68.153 95.4803 65.5026 98.8903 65.5026C122.003 65.5026 132.99 72.6966 150.041 83.6768L159.513 89.7348L187.172 44.6781L178.457 38.9987C159.134 26.504 137.537 12.4947 98.8903 12.4947C85.2503 12.4947 56.8335 18.1741 37.1312 38.62C23.4912 53.0079 16.6712 71.5607 17.8078 92.7638C18.9445 118.132 30.6901 138.578 51.908 152.587C67.0636 162.81 83.3558 166.975 92.0703 169.247L93.9648 169.625Z" fill="#7240A8"/>
<path d="M335.285 232.099C327.707 239.671 317.477 244.215 307.247 244.215C296.26 244.215 286.03 239.671 278.073 230.963C273.905 226.419 270.874 221.119 268.601 215.061H390.603C391.74 209.76 392.119 204.838 392.119 199.537C392.119 151.451 353.093 112.831 305.353 112.831C257.613 112.831 218.587 151.451 218.587 199.537C218.587 247.244 257.613 286.243 305.353 286.243C331.496 286.243 355.366 274.505 370.901 255.952L335.285 232.099ZM267.843 186.285C270.116 179.47 273.526 173.033 278.073 167.732C286.03 159.402 296.26 154.859 307.247 154.859C317.856 154.859 328.465 159.402 336.043 167.732C340.969 173.033 344.379 179.47 346.273 186.285H267.843Z" fill="#7240A8"/>
<path d="M451.904 118.511H413.257V281.699H460.997V200.673C460.997 177.198 477.668 156.373 500.401 156.373C523.135 156.373 539.806 177.198 539.806 200.673V281.699H586.031V200.673C586.031 152.587 550.036 113.967 506.085 113.967C489.414 113.967 472.364 121.54 459.481 132.898L451.904 118.511Z" fill="#7240A8"/>
<path d="M757.807 281.699H802.516V0H757.807V138.199C742.272 123.054 720.676 113.588 697.185 113.588C649.444 113.588 610.798 152.587 610.798 200.294C610.798 248.38 649.444 287 697.185 287C720.676 287 742.272 277.534 757.807 262.389V281.699ZM660.811 200.294C660.811 188.557 665.358 177.576 673.315 168.868C681.271 160.538 691.88 155.995 703.247 155.995C714.614 155.995 725.601 160.538 733.558 168.868C741.515 177.576 746.061 188.557 746.061 200.294C746.061 212.032 741.515 223.39 733.558 231.72C725.601 240.05 714.614 244.594 703.247 244.594C691.88 244.594 681.271 240.05 673.315 231.72C665.358 223.39 660.811 212.032 660.811 200.294Z" fill="#7240A8"/>
</svg>
